HIERARCHY
ROOT Hips
{
	OFFSET 0.000000 0.000000 0.000000 
	CHANNELS 6 Xposition Yposition Zposition Yrotation Zrotation Xrotation 
	JOINT Lumbar
	{
		OFFSET 0.000000 0.000000 0.000000 
		CHANNELS 3 Zrotation Xrotation Yrotation
		JOINT Neck
		{
			OFFSET 0.000000 0.445665 0.000000 
			CHANNELS 3 Zrotation Xrotation Yrotation
			End Site
			{
				OFFSET 0.000000 0.227535 0.000000 
			}
		}
		JOINT RightShoulder
		{
			OFFSET 0.019635 0.377685 0.194865 
			CHANNELS 3 Zrotation Xrotation Yrotation
			JOINT RightElbow
			{
				OFFSET 0.000000 -0.243375 0.000000 
				CHANNELS 2 Zrotation Yrotation
				JOINT RightWrist
				{
					OFFSET 0.000000 -0.264825 0.000000 
					CHANNELS 2 Zrotation Xrotation
					End Site
					{
						OFFSET 0.006600 -0.176220 0.000990 
					}
				}
			}
		}
		JOINT LeftShoulder
		{
			OFFSET 0.019635 0.377685 -0.194865 
			CHANNELS 3 Zrotation Xrotation Yrotation
			JOINT LeftElbow
			{
				OFFSET 0.000000 -0.243375 0.000000 
				CHANNELS 2 Zrotation Yrotation
				JOINT LeftWrist
				{
					OFFSET 0.000000 -0.264825 0.000000 
					CHANNELS 2 Zrotation Xrotation
					End Site
					{
						OFFSET 0.006600 -0.176220 -0.000990 
					}
				}
			}
		}
	}
	JOINT RightHip
	{
		OFFSET 0.052140 -0.069960 0.075570 
		CHANNELS 3 Zrotation Xrotation Yrotation
		JOINT RightKnee
		{
			OFFSET 0.000000 -0.402270 0.000000 
			CHANNELS 1 Zrotation
			JOINT RightAnkle
			{
				OFFSET 0.000000 -0.404085 0.000000 
				CHANNELS 3 Zrotation Xrotation Yrotation
				End Site
				{
					OFFSET 0.204105 -0.089430 0.008415 
				}
			}
		}
	}
	JOINT LeftHip
	{
		OFFSET 0.052140 -0.069960 -0.075570 
		CHANNELS 3 Zrotation Xrotation Yrotation
		JOINT LeftKnee
		{
			OFFSET 0.000000 -0.402270 0.000000 
			CHANNELS 1 Zrotation
			JOINT LeftAnkle
			{
				OFFSET 0.000000 -0.404085 0.000000 
				CHANNELS 3 Zrotation Xrotation Yrotation
				End Site
				{
					OFFSET 0.204105 -0.089430 -0.008415 
				}
			}
		}
	}
}
MOTION
Frames: 14
Frame Time: 0.02
-0.04268 -0.00728 0.15231 39.08128 -32.52994 -8.42397 49.24254 2.68009 -2.82154 -1.97177 7.12355 -2.11929 30.20689 -45.95885 -26.00472 94.76848 82.08432 1.67918 -2.16176 -16.87089 10.17772 15.81702 122.9749 -110.1034 17.80781 -2.64776 47.32797 -1.35815 -13.66169 -20.3807 -6.70703 -1.36163 -2.90953 49.44646 4.94706 7.44624 -24.78486 -7.29074 0.61373 2.58256
-0.04251 -0.0072 0.15222 38.57103 -32.72909 -8.3715 49.26703 2.76202 -3.36496 -1.76562 7.70013 -2.11931 32.66693 -47.50796 -27.85992 93.82116 82.01998 1.80509 -2.35302 -18.16348 10.73248 16.63518 123.39108 -107.95604 17.32302 -2.27109 47.61096 -1.32652 -13.44624 -20.37114 -6.71426 -1.32728 -2.89118 49.62175 5.02877 7.88144 -24.79299 -7.27721 0.6293 2.58939
-0.04235 -0.00713 0.15212 38.01317 -32.95125 -8.29769 49.30942 2.89753 -3.90664 -1.46756 8.10545 -2.11931 35.12294 -48.68631 -29.65737 92.80618 81.95226 1.80029 -2.53428 -19.53231 11.63028 17.29501 123.79335 -104.20357 16.16254 -1.6755 47.93422 -1.2861 -13.09172 -20.36032 -6.72382 -1.30094 -2.87651 49.81767 5.11114 8.37761 -24.80242 -7.26647 0.64372 2.59555
-0.04217 -0.00706 0.15201 37.47952 -33.15841 -8.23295 49.3441 3.00771 -4.44588 -1.22375 8.58093 -2.11932 37.50079 -50.02383 -31.47271 91.83751 81.887 1.85866 -2.71446 -20.83714 12.34078 18.02503 124.19411 -101.31542 15.35451 -1.20026 48.23296 -1.25227 -12.81276 -20.35001 -6.73267 -1.26952 -2.85979 49.9996 5.18724 8.82128 -24.81154 -7.25361 0.66066 2.60303
-0.04203 -0.00699 0.15194 36.93076 -33.3855 -8.17029 49.37649 3.12323 -5.00075 -0.92514 9.08963 -2.11933 40.2315 -51.40829 -33.32497 90.79128 81.81646 1.90603 -2.91937 -22.27135 13.17762 18.77152 124.63004 -97.90955 14.37603 -0.64477 48.55919 -1.20758 -12.48255 -20.33983 -6.74021 -1.24351 -2.8444 50.2015 5.28861 9.36983 -24.81954 -7.24409 0.66945 2.60638
-0.04183 -0.00692 0.15181 36.40386 -33.57584 -8.09846 49.4179 3.23998 -5.5216 -0.72041 9.4869 -2.11934 42.21544 -52.60005 -35.08389 89.89762 81.75662 1.94207 -3.07024 -23.44977 13.83366 19.4412 124.98809 -95.19218 13.58677 -0.20334 48.83697 -1.18316 -12.22448 -20.32919 -6.75092 -1.20863 -2.82727 50.36614 5.33781 9.71582 -24.83016 -7.22847 0.69473 2.61804
-0.04148 -0.00686 0.15152 35.94874 -33.66444 -8.00649 49.48194 3.34605 -5.95246 -0.78728 9.6327 -2.11934 42.20058 -53.39815 -36.62472 89.41178 81.72745 1.9955 -3.07134 -23.93264 13.92633 19.95494 125.14135 -94.62468 13.44924 -0.10599 48.97469 -1.21979 -12.21505 -20.31675 -6.77033 -1.14428 -2.8036 50.42767 5.23879 9.46971 -24.84757 -7.1942 0.76683 2.65358
-0.04107 -0.00679 0.15118 35.51822 -33.71436 -7.90613 49.55395 3.45161 -6.34821 -0.95331 9.66912 -2.11934 41.42217 -54.00519 -38.06895 89.08931 81.70937 2.03879 -3.01866 -24.15034 13.82351 20.3924 125.21557 -94.81888 13.52741 -0.1334 49.06158 -1.27663 -12.28027 -20.304 -6.79274 -1.07134 -2.77823 50.45024 5.08803 9.02126 -24.86756 -7.15396 0.85523 2.6973
-0.0407 -0.00673 0.15087 35.07676 -33.77826 -7.80972 49.62133 3.55769 -6.75759 -1.08147 9.74704 -2.11934 40.95007 -54.66873 -39.54075 88.71224 81.6861 2.07483 -2.99258 -24.46871 13.79727 20.85248 125.32084 -94.75503 13.52868 -0.11921 49.16913 -1.32227 -12.30118 -20.292 -6.81338 -1.0044 -2.75422 50.4873 4.96337 8.67617 -24.88649 -7.11716 0.93559 2.73682
-0.04029 -0.00665 0.15053 34.63123 -33.8576 -7.71197 49.69445 3.66397 -7.17699 -1.17832 9.85597 -2.11934 40.64635 -55.44983 -41.07943 88.24722 81.66303 2.15494 -2.9576 -24.87029 13.8311 21.3586 125.44481 -94.28197 13.42301 -0.0368 49.28797 -1.37599 -12.3608 -20.27758 -6.83573 -0.92895 -2.72784 50.53804 4.82733 8.28281 -24.90513 -7.07724 1.01902 2.77855
-0.03996 -0.00661 0.15024 34.20231 -33.89599 -7.61532 49.75619 3.76959 -7.56688 -1.36227 9.87364 -2.11935 39.81493 -55.94249 -42.45666 88.00825 81.64259 2.14442 -2.92784 -25.03868 13.69333 21.75205 125.513 -94.84071 13.59329 -0.12522 49.37124 -1.41798 -12.3597 -20.26791 -6.85529 -0.86899 -2.70595 50.55156 4.70328 7.94402 -24.92482 -7.04255 1.09937 2.81739
-0.03981 -0.00666 0.15007 33.80041 -33.82492 -7.524 49.794 3.86801 -7.88661 -1.78745 9.6913 -2.11937 37.67447 -55.71244 -43.41087 88.32686 81.62306 1.86881 -2.931 -24.59127 13.0909 21.85858 125.43095 -98.26046 14.5325 -0.68818 49.36372 -1.42081 -12.17009 -20.27325 -6.86573 -0.85469 -2.69695 50.46498 4.61986 7.77826 -24.94796 -7.02211 1.1724 2.84843
-0.03974 -0.00674 0.14994 33.41756 -33.71507 -7.43431 49.81844 3.96635 -8.17745 -2.29253 9.41683 -2.11941 35.03619 -55.19549 -44.20599 88.87228 81.6061 1.50514 -2.94 -23.9242 12.32825 21.85365 125.29827 -102.66521 15.73388 -1.41426 49.32294 -1.41144 -11.91793 -20.28305 -6.87336 -0.85615 -2.69252 50.34364 4.55106 7.67781 -24.97181 -7.00744 1.24089 2.87593
-0.03965 -0.00681 0.14981 33.03402 -33.62654 -7.34359 49.84243 4.06831 -8.47956 -2.74531 9.16909 -2.11944 32.6516 -54.79401 -45.0753 89.33223 81.59091 1.19515 -2.94324 -23.3822 11.66228 21.89747 125.19924 -106.4943 16.77977 -2.04404 49.30043 -1.40899 -11.69688 -20.28962 -6.88276 -0.84971 -2.68589 50.24239 4.47915 7.56668 -24.99462 -6.99121 1.30794 2.90357
